<?xml version="1.0" encoding="utf-8"?>
<!-- Generator: Adobe Illustrator 23.0.1, SVG Export Plug-In . SVG Version: 6.00 Build 0)  -->
<svg version="1.1" id="Слой_1" xmlns="http://www.w3.org/2000/svg" xmlns:xlink="http://www.w3.org/1999/xlink" x="0px" y="0px"
	 viewBox="0 0 120 120" style="enable-background:new 0 0 120 120;" xml:space="preserve">
<style type="text/css">
	.st0{fill:#35BDE2;}
	.st1{fill:none;stroke:#FFFFFF;stroke-width:0.85;stroke-miterlimit:10;}
	.st2{fill:#FFED00;}
	.st3{fill:#E30613;}
	.st4{fill:#BBD151;}
</style>
<title>Ресурс 1007</title>
<path class="st0" d="M14.2,42.4v-1.4c0-6.2,0-12.5,0-18.8c0-5.8,2.4-9.3,7.9-11.3c0-2.3,0-4.7,0-7.1S23.6,0,25.9,0
	c4.2,0,8.3,0,12.5,0c2.4,0,3.8,1.4,3.8,3.8c0.1,2.2,0,4.3,0,6.5c0,0.1,0.1,0.2,0.2,0.3h7.5c0-2.1,0.1-4.2,0-6.2
	c-0.2-2.2,1.3-4.1,3.4-4.3c0.3,0,0.6,0,0.9,0c4,0.2,8,0,12,0c2-0.2,3.7,1.3,3.8,3.3c0,0.2,0,0.4,0,0.6c0,2.2,0,4.2,0,6.3
	c0,0.1,0.1,0.2,0.1,0.3h7.5c0-0.4,0.1-0.8,0.1-1.2c0-1.9-0.1-3.9,0-5.8c0-1.9,1.5-3.4,3.4-3.4c0.1,0,0.2,0,0.2,0c4.2,0,8.5,0,12.8,0
	C96,0,97.6,1.5,97.7,3.4c0,0.2,0,0.2,0,0.4c0,2.4,0,4.8,0,7.2c0.6,0.2,1.3,0.5,1.8,0.8c3.8,1.9,6,5.1,6.1,9.3c0.2,7,0,13.8,0,20.8
	c0,0.2,0,0.4-0.1,0.6L14.2,42.4z"/>
<path class="st1" d="M14.2,42.4v-1.4c0-6.2,0-12.5,0-18.8c0-5.8,2.4-9.3,7.9-11.3c0-2.3,0-4.7,0-7.1S23.6,0,25.9,0
	c4.2,0,8.3,0,12.5,0c2.4,0,3.8,1.4,3.8,3.8c0.1,2.2,0,4.3,0,6.5c0,0.1,0.1,0.2,0.2,0.3h7.5c0-2.1,0.1-4.2,0-6.2
	c-0.2-2.2,1.3-4.1,3.4-4.3c0.3,0,0.6,0,0.9,0c4,0.2,8,0,12,0c2-0.2,3.7,1.3,3.8,3.3c0,0.2,0,0.4,0,0.6c0,2.2,0,4.2,0,6.3
	c0,0.1,0.1,0.2,0.1,0.3h7.5c0-0.4,0.1-0.8,0.1-1.2c0-1.9-0.1-3.9,0-5.8c0-1.9,1.5-3.4,3.4-3.4c0.1,0,0.2,0,0.2,0c4.2,0,8.5,0,12.8,0
	C96,0,97.6,1.5,97.7,3.4c0,0.2,0,0.2,0,0.4c0,2.4,0,4.8,0,7.2c0.6,0.2,1.3,0.5,1.8,0.8c3.8,1.9,6,5.1,6.1,9.3c0.2,7,0,13.8,0,20.8
	c0,0.2,0,0.4-0.1,0.6L14.2,42.4z"/>
<path class="st2" d="M105.6,49.5v31.6h-28V49.5H105.6z"/>
<path class="st3" d="M42,49.5v31.6H14V49.5H42z"/>
<path class="st4" d="M23.1,119.9c-1.5-0.6-3-1.2-4.4-2c-2.8-1.8-4.5-5-4.4-8.2c-0.1-7,0-13.9,0-20.9c0-0.2,0-0.3,0.1-0.5h91.3v20
	c0,6.2-2.7,9.8-8.7,11.5c-0.1,0-0.1,0.1-0.2,0.2L23.1,119.9z"/>
</svg>
