<svg xmlns="http://www.w3.org/2000/svg" viewBox="0 0 256.05 191.05"><defs><style>.a{fill:#35bde2;}.b{fill:#bece5b;}.c{fill:#f6e841;}</style></defs><title>Ресурс 107</title><path class="a" d="M164.37,119.34v71.42c-1.9.1-3.66.27-5.41.27q-74,0-147.91,0c-8.82,0-11-2.18-11-10.78q0-26,0-52c0-6.5,2.6-9.26,9-9.27q76.2-.08,152.4,0C162.25,119,163.05,119.19,164.37,119.34Z"/><path class="b" d="M88.54,103.66c0-16.82-.12-33.13.06-49.44.07-5.28,3.15-7.68,9-7.7q34-.06,68,0h80c8.13,0,10.47,2.31,10.48,10.32,0,15.48,0,31,0,46.83Z"/><path class="c" d="M179.89,119.32C181,119.2,182,119,183,119c21.31,0,42.62-.06,63.93,0,6.44,0,9.1,2.76,9.12,9.15q.08,27,0,54c0,5.91-2.64,8.84-8.38,8.86-22,.11-44,0-65.93,0a9.85,9.85,0,0,1-1.81-.4Z"/><path class="a" d="M71.39,103.75H16.8c0-8.7-.38-17.3.28-25.81.17-2.06,3.77-5.42,5.89-5.5,14-.51,27.92-.41,41.89-.21a6.31,6.31,0,0,1,6.44,6.44C71.57,86.92,71.39,95.19,71.39,103.75Z"/><path class="b" d="M104.71,31.34c0-8.45-.25-16.74.11-25,.18-4,3.28-6.2,7.21-6.24q20-.18,40,0c3.93,0,7,2.21,7.22,6.24.36,8.26.1,16.55.1,25Z"/><path class="b" d="M184.71,31.34c0-8.45-.25-16.74.11-25,.18-4,3.27-6.2,7.21-6.23q20-.19,40,0c3.93,0,7,2.21,7.22,6.24.36,8.26.1,16.55.1,25Z"/></svg>