<?xml version="1.0" encoding="utf-8"?>
<!-- Generator: Adobe Illustrator 23.0.1, SVG Export Plug-In . SVG Version: 6.00 Build 0)  -->
<svg version="1.1" id="Слой_1" xmlns="http://www.w3.org/2000/svg" xmlns:xlink="http://www.w3.org/1999/xlink" x="0px" y="0px"
	 viewBox="0 0 115.3 150.5" style="enable-background:new 0 0 115.3 150.5;" xml:space="preserve">
<style type="text/css">
	.st0{fill:#35BDE2;}
	.st1{fill:none;stroke:#FFFFFF;stroke-width:0.85;stroke-miterlimit:10;}
	.st2{fill:#FFED00;}
	.st3{fill:#E30613;}
	.st4{fill:#BBD151;}
</style>
<title>Ресурс 1007</title>
<path class="st0" d="M0.4,53.5v-1.7c0-7.8,0-15.7,0-23.5c0-7.2,3-11.6,9.9-14.2c0-2.9,0-5.9,0-8.9s1.8-4.8,4.7-4.8
	c5.2,0,10.4,0,15.6,0c3,0,4.7,1.7,4.8,4.7c0.1,2.7,0,5.4,0,8.1c0,0.1,0.1,0.2,0.2,0.4H45c0-2.6,0.1-5.2,0-7.8
	c-0.3-2.7,1.6-5.1,4.3-5.4c0.4,0,0.7,0,1.1,0c5,0.2,10,0,15,0c2.5-0.2,4.6,1.6,4.8,4.1c0,0.3,0,0.5,0,0.8c0,2.7,0,5.3,0,7.9
	c0,0.1,0.1,0.3,0.1,0.4h9.4c0-0.5,0.1-1,0.1-1.5c0-2.4-0.1-4.9,0-7.3c0-2.4,1.9-4.3,4.2-4.3c0.1,0,0.2,0,0.3,0c5.3,0,10.7,0,16,0
	c2.4-0.1,4.4,1.7,4.6,4.1c0,0.2,0,0.3,0,0.5c0,3,0,6,0,9c0.8,0.3,1.6,0.6,2.3,1c4.8,2.4,7.5,6.4,7.6,11.7c0.2,8.7,0,17.3,0,26
	c0,0.3,0,0.5-0.1,0.8L0.4,53.5z"/>
<path class="st1" d="M0.4,53.5v-1.7c0-7.8,0-15.7,0-23.5c0-7.2,3-11.6,9.9-14.2c0-2.9,0-5.9,0-8.9s1.8-4.8,4.7-4.8
	c5.2,0,10.4,0,15.6,0c3,0,4.7,1.7,4.8,4.7c0.1,2.7,0,5.4,0,8.1c0,0.1,0.1,0.2,0.2,0.4H45c0-2.6,0.1-5.2,0-7.8
	c-0.3-2.7,1.6-5.1,4.3-5.4c0.4,0,0.7,0,1.1,0c5,0.2,10,0,15,0c2.5-0.2,4.6,1.6,4.8,4.1c0,0.3,0,0.5,0,0.8c0,2.7,0,5.3,0,7.9
	c0,0.1,0.1,0.3,0.1,0.4h9.4c0-0.5,0.1-1,0.1-1.5c0-2.4-0.1-4.9,0-7.3c0-2.4,1.9-4.3,4.2-4.3c0.1,0,0.2,0,0.3,0c5.3,0,10.7,0,16,0
	c2.4-0.1,4.4,1.7,4.6,4.1c0,0.2,0,0.3,0,0.5c0,3,0,6,0,9c0.8,0.3,1.6,0.6,2.3,1c4.8,2.4,7.5,6.4,7.6,11.7c0.2,8.7,0,17.3,0,26
	c0,0.3,0,0.5-0.1,0.8L0.4,53.5z"/>
<path class="st2" d="M114.8,62.4V102h-35V62.4H114.8z"/>
<path class="st3" d="M35.1,62.4V102h-35V62.4H35.1z"/>
<path class="st4" d="M11.5,150.5C9.6,149.8,7.8,149,6,148c-3.5-2.3-5.6-6.2-5.5-10.3c-0.1-8.7,0-17.4,0-26.1c0-0.2,0-0.4,0.1-0.6
	h114.3v25c0,7.8-3.4,12.3-10.9,14.4c-0.1,0-0.1,0.1-0.2,0.2L11.5,150.5z"/>
</svg>
