<svg xmlns="http://www.w3.org/2000/svg" viewBox="0 0 115.35 150.51"><defs><style>.a{fill:#35bde2;}.b{fill:none;stroke:#fff;stroke-miterlimit:10;stroke-width:0.85px;}.c{fill:#bbd151;}.d{fill:#e30613;}.e{fill:#ffed00;}</style></defs><title>Ресурс 1007</title><path class="a" d="M.43,53.51V51.83q0-11.74,0-23.5c0-7.24,3.05-11.64,9.94-14.19,0-2.93,0-5.91,0-8.89S12.15.48,15.09.48q7.79,0,15.56,0c3,0,4.71,1.71,4.77,4.73.06,2.69,0,5.38,0,8.07,0,.09.07.18.15.36h9.45c0-2.61.11-5.19,0-7.76A4.89,4.89,0,0,1,50.4.43c5,.19,10,0,15,0A4.49,4.49,0,0,1,70.24,5.3c0,2.65,0,5.29,0,7.93a2.2,2.2,0,0,0,.1.39h9.45c0-.49.06-1,.06-1.53,0-2.44-.05-4.89,0-7.34A4.26,4.26,0,0,1,84.38.48c5.34,0,10.67,0,16,0a4.35,4.35,0,0,1,4.55,4.64c0,3,0,6,0,9,.79.33,1.57.6,2.3,1,4.79,2.42,7.47,6.36,7.58,11.67.18,8.66,0,17.33,0,26a6.83,6.83,0,0,1-.09.79Z"/><path class="b" d="M.43,53.51V51.83q0-11.74,0-23.5c0-7.24,3.05-11.64,9.94-14.19,0-2.93,0-5.91,0-8.89S12.15.48,15.09.48q7.79,0,15.56,0c3,0,4.71,1.71,4.77,4.73.06,2.69,0,5.38,0,8.07,0,.09.07.18.15.36h9.45c0-2.61.11-5.19,0-7.76A4.89,4.89,0,0,1,50.4.43c5,.19,10,0,15,0A4.49,4.49,0,0,1,70.24,5.3c0,2.65,0,5.29,0,7.93a2.2,2.2,0,0,0,.1.39h9.45c0-.49.06-1,.06-1.53,0-2.44-.05-4.89,0-7.34A4.26,4.26,0,0,1,84.38.48c5.34,0,10.67,0,16,0a4.35,4.35,0,0,1,4.55,4.64c0,3,0,6,0,9,.79.33,1.57.6,2.3,1,4.79,2.42,7.47,6.36,7.58,11.67.18,8.66,0,17.33,0,26a6.83,6.83,0,0,1-.09.79Z"/><path class="c" d="M114.81,62.38V102h-35V62.38Z"/><path class="d" d="M35.06,62.38V102H.05V62.38Z"/><path class="e" d="M11.54,150.51A36.44,36.44,0,0,1,6,148,12.2,12.2,0,0,1,.48,137.66c-.13-8.72,0-17.43,0-26.14a3.74,3.74,0,0,1,.1-.64H114.89v25c0,7.78-3.45,12.34-10.9,14.44-.08,0-.14.12-.22.18Z"/></svg>