<svg xmlns="http://www.w3.org/2000/svg" viewBox="0 0 274.67 387.17"><defs><style>.a{fill:#747373;}.b{fill:#38bce0;}</style></defs><title>Ресурс 107</title><path class="a" d="M63.92,285.08c-.72-6.6-.53-13-2.25-18.92-2.75-9.35-.15-18.14,1.16-27.08,1.65-11.29,3.72-22.52,5.67-33.76,2.61-14.94,5.16-29.9,8-44.81,1.8-9.53,4-19,6-28.47.39-1.82,1.22-2.56,3.22-2.59,14.5-.15,29-.75,43.51-.61,20.14.19,40.28,1,60.42,1.33,2.66.05,3.08,1.72,3.47,3.4,1.86,8.16,3.72,16.34,5.28,24.56,3.05,16,6.09,32,8.77,48,2.51,15,4.43,30.07,6.86,45.07a23.85,23.85,0,0,1-1.76,14.29c-1.85,4.21-1.09,9.61-1.23,14.49-.16,5.29,0,5.29-5.46,5.29l-140.28-.07C64.84,285.21,64.37,285.12,63.92,285.08Z"/><path class="b" d="M112.92,0c16.54,0,32.53,0,48.51.13.75,0,2.08,1.78,2.13,2.79.26,4.67.32,9.36.12,14-.13,3.09,1,4.07,4,4,6.45-.07,12.64,1,17.65,5.6a15.23,15.23,0,0,1,4.94,11.05c.43,13.37.76,26.75.89,40.12.05,5.75-.33,11.52-.82,17.25-.72,8.3-5.4,14.1-12.24,18.44-2.13,1.35-4.16,2.57-4.24,5.87-.06,2.76-3,2.75-5.2,2.76q-15.88,0-31.76,0H107c-2.67,0-4.78,0-5.59-3.7-.47-2.1-3-4.31-5.09-5.39-8-4.09-11.82-10.17-11.74-19.33.13-16-.42-31.94-.51-47.91a44.49,44.49,0,0,1,1.13-9.82c2.21-10,6.16-13.3,16.38-14.28a31,31,0,0,0,3.56-.66c6.92-1.41,6.91-1.41,6.93-8.54,0-3.32,0-6.64.18-10A10.54,10.54,0,0,1,112.92,0Z"/><path class="b" d="M39.21,319.14c-1-6.67.26-12.94,2.13-19.18a46.82,46.82,0,0,0,1.87-8.9c.42-4.25-2.84-6.6-5.63-8.89-4.58-3.76-10-5-15.38-2.41-5.1,2.46-6.56,7.47-6.95,12.85-.32,4.36-.67,8.75-1.41,13.05a14.33,14.33,0,0,1-2.61,5.42c-1.71,2.44-5.55,1.58-6.83-1.75A77.93,77.93,0,0,1,.64,296.85C-1,288.43.5,280.62,6.43,274.09A39.2,39.2,0,0,1,12.16,269c4.81-3.56,6.19-8.55,5.27-14-2.3-13.48.17-26.48,3.41-39.39C25.51,197,34,180,43.11,163.17a141.37,141.37,0,0,1,8.83-14.61c4.9-6.92,12.05-9.6,21.08-9.5-.31,3.35-.39,6.58-.94,9.73C68.5,169.37,65,190,61.11,210.5c-3.45,18.37-7.35,36.65-10.9,55-.68,3.5-.45,6.88,2,10.09,9,11.93,7.28,26.9-2,37.62C47.58,316.21,43.21,319.41,39.21,319.14Z"/><path class="b" d="M202.18,138.47c10-.63,17.75,3.49,22.42,11.51,7.1,12.19,13.45,24.84,19.53,37.58a154.13,154.13,0,0,1,13.8,44.31c1,6.93.59,14.17,0,21.19-.53,6-.66,11,4.9,15.23,11.08,8.45,13.49,20.22,11,33.33-1,5-4.35,8.67-10.38,11.28-1-5.33-1.91-10.47-2.84-15.6-.74-4.05-1.18-8.19-2.3-12.14-1.53-5.37-6.1-8-11.59-7.18a39.15,39.15,0,0,0-4.65,1c-10.38,2.81-10.75,7.45-9.29,16.1,1,6,2.42,11.86,3.28,17.84a4.78,4.78,0,0,1-2.07,3.92,5.06,5.06,0,0,1-4.46-.44c-11.55-8.41-16.43-23.93-8.85-37.87.7-1.28,1.49-2.51,2.23-3.77a14.54,14.54,0,0,0,1.61-11.17c-3.69-16.84-7.25-33.71-10.42-50.65-3.21-17.19-6-34.46-8.8-51.72C204,153.75,203.21,146.26,202.18,138.47Z"/><path class="a" d="M124.69,47.83a7.47,7.47,0,1,0,7.47,7.46A7.47,7.47,0,0,0,124.69,47.83Z"/><path class="a" d="M150.34,47.83a7.47,7.47,0,1,0,7.47,7.46A7.47,7.47,0,0,0,150.34,47.83Z"/><path class="a" d="M151.54,77.06a3.68,3.68,0,0,0-7.13-1.28c-.37.62-2.07,2.93-7,2.93-5.55,0-7.23-2.9-7.3-3l0,.09h0A3.68,3.68,0,0,0,123,77.06a3.6,3.6,0,0,0,.54,1.9h0c1.27,2.64,5.62,7.09,13.89,7.09S150,81.4,151.2,78.64h0A3.62,3.62,0,0,0,151.54,77.06Z"/><path class="b" d="M209.11,290.76v96.41H140.84V340.29h-8.79v46.88H63.42V290.76Z"/></svg>